<svg width="400" height="416" viewBox="0 0 400 416" fill="none" xmlns="http://www.w3.org/2000/svg">
<path d="M160.712 303.456H69.0262V387.476H160.712V303.456Z" fill="#1C2628" stroke="#1C2628" stroke-width="2.13" stroke-linecap="round" stroke-linejoin="round"/>
<path d="M208.251 119.288C225.969 131.351 248.419 133.571 269.026 144.419C289.801 155.225 308.859 174.45 301.78 190.031C294.702 205.445 261.445 217.047 243.518 232.628C225.801 248.042 223.246 267.267 212.607 282.513C199.581 291.937 181.068 304.628 166.031 305.885C148.984 302.702 134.115 284.9 117.738 272.67C101.529 260.272 83.979 253.613 72.8377 241.382C61.5288 229.319 56.7958 211.518 50.2199 190.366C43.644 169.089 35.3508 144.293 41.9267 124.565C48.6702 105.005 70.1152 90.555 93.0681 81.1728C115.853 71.7906 139.812 67.644 158.576 76.3979C177.173 85.2775 190.534 107.225 208.251 119.288Z" fill="#5AB7CC"/>
<path fill-rule="evenodd" clip-rule="evenodd" d="M143.288 69.6126C143.707 69.2775 145.131 68.9843 145.382 68.5654C146.471 66.8063 149.99 62.9529 148.524 59.8115C147.099 56.6702 145.047 57.801 145.047 57.801C145.047 57.801 144.796 51.2251 137.885 55.8325C137.047 56.377 136.796 55.3717 136.293 56.2932C135.916 56.9633 135.623 57.7592 135.33 58.4712" fill="#1C2628"/>
<path d="M143.288 69.6126C143.707 69.2775 145.131 68.9843 145.382 68.5654C146.471 66.8063 149.99 62.9529 148.524 59.8115C147.099 56.6702 145.047 57.801 145.047 57.801C145.047 57.801 144.796 51.2251 137.885 55.8325C137.047 56.377 136.796 55.3717 136.293 56.2932C135.916 56.9633 135.623 57.7592 135.33 58.4712" stroke="#1C2628" stroke-width="2.13" stroke-linecap="round" stroke-linejoin="round"/>
<path fill-rule="evenodd" clip-rule="evenodd" d="M117.654 71.2042C117.403 71.7068 116.23 72.5445 116.188 73.0052C115.895 75.0576 114.346 80.0419 116.984 82.3037C119.581 84.5654 120.963 82.6806 120.963 82.6806C120.963 82.6806 123.895 88.5445 128.293 81.5079C128.796 80.6702 129.466 81.466 129.55 80.4189C129.633 79.623 129.55 78.8272 129.508 78.0314" fill="#1C2628"/>
<path d="M117.654 71.2042C117.403 71.7068 116.23 72.5445 116.188 73.0052C115.895 75.0576 114.346 80.0419 116.984 82.3037C119.581 84.5654 120.963 82.6806 120.963 82.6806C120.963 82.6806 123.895 88.5445 128.293 81.5079C128.796 80.6702 129.466 81.466 129.55 80.4189C129.633 79.623 129.55 78.8272 129.508 78.0314" stroke="#1C2628" stroke-width="2.13" stroke-linecap="round" stroke-linejoin="round"/>
<path fill-rule="evenodd" clip-rule="evenodd" d="M106.346 105.843C110.785 97.5497 114.22 91.3927 114.22 91.3927L121.592 88.5026L125.78 79.7068L140.942 83.4345L139.351 87.5393L136.67 97.2984C136.67 97.2984 138.932 105.717 135.916 105.55C135.581 105.55 135.037 108.063 134.366 112.168C125.277 111.372 114.429 110.115 106.346 105.843Z" fill="#FAF6EB" stroke="#1C2628" stroke-width="2.13" stroke-linecap="round" stroke-linejoin="round"/>
<path fill-rule="evenodd" clip-rule="evenodd" d="M146.262 75.0995C147.435 64.4188 144.503 66.2618 143.916 63.3298C142.785 57.5079 141.068 55.5393 130.346 56.2094C128.461 56.3351 126.241 56.4188 124.524 57.2565C116.691 61.1937 116.817 67.3927 116.817 67.3927C116.817 67.3927 112.67 81.8011 128.67 83.267C144.712 84.6911 128.754 83.0157 137.34 80.9215C145.885 78.8272 146.262 75.0995 146.262 75.0995Z" fill="#1C2628" stroke="#1C2628" stroke-width="2.13" stroke-linecap="round" stroke-linejoin="round"/>
<path fill-rule="evenodd" clip-rule="evenodd" d="M128.335 75.8534C127.832 73.3403 132.188 66.6806 132.942 64.4607C134.283 60.4817 127.414 62.1152 131.602 61.2356C136.293 60.2723 140.482 60.1047 143.246 64C144.335 65.5079 145.843 73.1309 146.262 75.0995C147.728 82.1361 143.665 86.8272 137.173 88.2094C132.984 89.089 129.675 88.5026 126.869 85.445C125.277 83.6859 128.838 78.3665 128.335 75.8534Z" fill="#FAF6EB" stroke="#1C2628" stroke-width="2.13" stroke-linecap="round" stroke-linejoin="round"/>
<path fill-rule="evenodd" clip-rule="evenodd" d="M141.864 71.5812C142.115 72.5026 141.194 73.5079 139.728 73.8429C138.304 74.178 136.921 73.7173 136.67 72.7958" fill="#FAF6EB"/>
<path d="M141.864 71.5812C142.115 72.5026 141.194 73.5079 139.728 73.8429C138.304 74.178 136.921 73.7173 136.67 72.7958" stroke="#1C2628" stroke-width="2.13" stroke-linecap="round" stroke-linejoin="round"/>
<path fill-rule="evenodd" clip-rule="evenodd" d="M126.031 85.445L127.791 81.4241C127.791 81.4241 134.743 81.089 136.545 83.3508C138.346 85.5707 135.874 92.356 135.874 92.356L130.974 92.7749" fill="#FAF6EB"/>
<path fill-rule="evenodd" clip-rule="evenodd" d="M131.099 73.4241C130.262 72.2513 128.335 73.2565 127.958 74.3037C127.12 76.4817 129.173 80.2932 132.817 77.7382" fill="#FAF6EB"/>
<path d="M131.099 73.4241C130.262 72.2513 128.335 73.2565 127.958 74.3037C127.12 76.4817 129.173 80.2932 132.817 77.7382" stroke="#1C2628" stroke-width="2.13" stroke-linecap="round" stroke-linejoin="round"/>
<path d="M130.764 75.7696C130.764 75.7696 130.346 75.2251 130.429 75.3089" stroke="#1C2628" stroke-width="2.13" stroke-linecap="round" stroke-linejoin="round"/>
<path fill-rule="evenodd" clip-rule="evenodd" d="M139.393 77.822C140.063 78.911 140.859 79.7906 142.325 80.2094C142.325 80.2094 140.398 82.89 137.927 81.8429C136.293 81.1728 139.393 77.822 139.393 77.822Z" fill="#1C2628" stroke="#1C2628" stroke-width="2.13" stroke-linecap="round" stroke-linejoin="round"/>
<path fill-rule="evenodd" clip-rule="evenodd" d="M144.419 73.9686C144.419 73.9686 149.236 76.4817 149.277 77.3194C149.571 80.6283 145.508 78.4084 145.089 78.7016" fill="#FAF6EB"/>
<path d="M144.419 73.9686C144.419 73.9686 149.236 76.4817 149.277 77.3194C149.571 80.6283 145.508 78.4084 145.089 78.7016" stroke="#1C2628" stroke-width="2.13" stroke-linecap="round" stroke-linejoin="round"/>
<path fill-rule="evenodd" clip-rule="evenodd" d="M140.398 58.7225L143.246 64C139.518 58.6806 137.34 73.1309 126.911 72.4188C126.618 72.4188 120.921 73.466 121.005 73.089C121.089 72.6283 121.927 72.7539 122.304 72.4188C123.141 71.6649 123.435 70.7853 123.728 69.7382C124.063 68.4817 123.099 65.6754 124.272 64.7539C126.157 63.2461 129.089 57.801 131.141 58.1361L140.398 58.7225Z" fill="#1C2628" stroke="#1C2628" stroke-width="2.13" stroke-linecap="round" stroke-linejoin="round"/>
<path fill-rule="evenodd" clip-rule="evenodd" d="M129.717 58.9738C129.257 58.6387 128.586 57.3822 128.126 57.2565C126.115 56.712 121.424 54.4503 118.827 56.7539C116.23 59.0157 117.864 60.6492 117.864 60.6492C117.864 60.6492 111.665 62.7435 118.031 68.1047C118.785 68.733 117.906 69.2775 118.911 69.5288C119.665 69.6963 120.503 69.7382 121.298 69.822" fill="#1C2628"/>
<path d="M129.717 58.9738C129.257 58.6387 128.586 57.3822 128.126 57.2565C126.115 56.712 121.424 54.4503 118.827 56.7539C116.23 59.0157 117.864 60.6492 117.864 60.6492C117.864 60.6492 111.665 62.7435 118.031 68.1047C118.785 68.733 117.906 69.2775 118.911 69.5288C119.665 69.6963 120.503 69.7382 121.298 69.822" stroke="#1C2628" stroke-width="2.13" stroke-linecap="round" stroke-linejoin="round"/>
<path fill-rule="evenodd" clip-rule="evenodd" d="M138.764 62.3665C138.764 61.822 139.435 60.5654 139.309 60.1047C138.639 58.1361 137.885 52.9843 134.534 52.1047C131.183 51.2251 130.764 53.5288 130.764 53.5288C130.764 53.5288 125.529 49.5497 124.691 57.8429C124.607 58.8063 123.644 58.4293 124.021 59.3508C124.314 60.1047 124.733 60.7749 125.11 61.4869" fill="#1C2628"/>
<path d="M138.764 62.3665C138.764 61.822 139.435 60.5654 139.309 60.1047C138.639 58.1361 137.885 52.9843 134.534 52.1047C131.183 51.2251 130.764 53.5288 130.764 53.5288C130.764 53.5288 125.529 49.5497 124.691 57.8429C124.607 58.8063 123.644 58.4293 124.021 59.3508C124.314 60.1047 124.733 60.7749 125.11 61.4869" stroke="#1C2628" stroke-width="2.13" stroke-linecap="round" stroke-linejoin="round"/>
<path fill-rule="evenodd" clip-rule="evenodd" d="M123.77 65.2984C123.225 65.2147 122.094 64.3351 121.633 64.4188C119.581 64.7539 114.387 64.712 112.963 67.8953C111.539 71.0785 113.759 71.8325 113.759 71.8325C113.759 71.8325 109.026 76.356 117.026 78.4921C117.99 78.7435 117.445 79.623 118.408 79.4136C119.162 79.2461 119.916 78.9529 120.67 78.7016" fill="#1C2628"/>
<path d="M123.77 65.2984C123.225 65.2147 122.094 64.3351 121.633 64.4188C119.581 64.7539 114.387 64.712 112.963 67.8953C111.539 71.0785 113.759 71.8325 113.759 71.8325C113.759 71.8325 109.026 76.356 117.026 78.4921C117.99 78.7435 117.445 79.623 118.408 79.4136C119.162 79.2461 119.916 78.9529 120.67 78.7016" stroke="#1C2628" stroke-width="2.13" stroke-linecap="round" stroke-linejoin="round"/>
<path fill-rule="evenodd" clip-rule="evenodd" d="M213.99 136.712L230.073 105.675C230.073 105.675 227.686 105.298 226.681 105.634C225.675 105.969 222.157 112.712 222.157 112.712L220.188 106.555C220.188 106.555 218.848 105.843 218.806 109.236C218.764 112.628 218.722 116.021 218.722 116.021L213.194 123.435C213.194 123.435 211.518 121.717 212.23 120.377C212.942 119.037 213.989 115.309 214.702 113.969C215.414 112.628 214.031 111.916 214.031 111.916L206.743 121.005L204.649 129.634L160 137.382L170.471 160.168L213.99 136.712Z" fill="#FAF6EB" stroke="#1C2628" stroke-width="2.13" stroke-linecap="round" stroke-linejoin="round"/>
<path d="M221.11 119.832C222.073 117.696 222.283 114.89 222.241 112.545" stroke="#1C2628" stroke-width="2.13" stroke-linecap="round" stroke-linejoin="round"/>
<path fill-rule="evenodd" clip-rule="evenodd" d="M80.2932 158.911C93.5707 158.869 124.147 167.33 138.052 167.958L138.471 149.068C138.471 149.068 153.215 163.853 160.251 162.681C172.565 160.628 186.639 156.23 186.639 156.23L183.372 144.251L180.105 132.272L163.058 132.105C163.058 132.105 154.094 103.916 150.199 103.162L139.099 97.3403C139.099 97.3403 128.293 101.236 114.178 91.4346C105.508 85.4031 85.8639 98.5969 86.3246 110.157C86.911 122.513 80 145.843 80.2932 158.911Z" fill="#1C2628" stroke="#1C2628" stroke-width="2.13" stroke-linecap="round" stroke-linejoin="round"/>
<path d="M146.242 275.96C146.305 274.596 138.975 273.153 129.871 272.735C120.767 272.318 113.336 273.084 113.273 274.448C113.211 275.811 120.54 277.255 129.645 277.672C138.749 278.09 146.18 277.323 146.242 275.96Z" fill="#1C2628" stroke="#1C2628" stroke-width="2.13" stroke-linecap="round" stroke-linejoin="round"/>
<path fill-rule="evenodd" clip-rule="evenodd" d="M71.1204 263.749C72.4189 263.288 77.9058 264.838 82.3874 272.209C86.8691 279.539 89.9267 288.209 88.7539 288.921C87.5812 289.633 82.6388 282.094 78.1571 274.764C73.6754 267.435 67.5183 265.047 71.1204 263.749Z" fill="#1C2628" stroke="#1C2628" stroke-width="2.13" stroke-linecap="round" stroke-linejoin="round"/>
<path d="M97.7591 198.702C100.524 194.764 100.649 191.162 100.063 188.482C99.644 186.681 99.1832 175.497 98.6806 174.702L91.6859 177.089" fill="#FAF6EB"/>
<path d="M97.7591 198.702C100.524 194.764 100.649 191.162 100.063 188.482C99.644 186.681 99.1832 175.497 98.6806 174.702L91.6859 177.089" stroke="#1C2628" stroke-width="2.13" stroke-linecap="round" stroke-linejoin="round"/>
<path fill-rule="evenodd" clip-rule="evenodd" d="M140.607 281.885C137.215 268.147 160.503 228.942 160.503 228.942L121.466 245.445L118.115 289.005L134.911 297.089L153.466 293.319C153.466 293.319 141.613 286.031 140.607 281.885Z" fill="#FAF6EB" stroke="#1C2628" stroke-width="2.13" stroke-linecap="round" stroke-linejoin="round"/>
<path fill-rule="evenodd" clip-rule="evenodd" d="M77.8639 186.346C71.6649 179.979 80.6702 162.764 80.6702 162.764C80.6702 162.764 114.136 168.503 113.969 168.461C113.508 168.377 163.141 170.471 178.262 179.141C185.34 183.204 184.838 198.283 181.822 205.864L145.634 275.393C145.634 275.393 138.346 273.424 135.832 273.173C130.387 272.628 113.927 273.675 113.927 273.675L135.707 214.199L95.7906 204.23C88.9634 202.387 82.8063 191.455 77.8639 186.346Z" fill="#47584E" stroke="#1C2628" stroke-width="2.13" stroke-linecap="round" stroke-linejoin="round"/>
<path fill-rule="evenodd" clip-rule="evenodd" d="M136.126 288.126L139.853 282.764C139.853 282.764 146.848 285.864 153.885 289.005C148.314 291.518 141.864 290.764 136.126 288.126Z" fill="#1C2628" stroke="#1C2628" stroke-width="2.13" stroke-linecap="round" stroke-linejoin="round"/>
<path fill-rule="evenodd" clip-rule="evenodd" d="M116.817 284.817C116.817 284.817 121.508 281.089 123.979 286.115C124.859 287.874 131.644 291.686 134.073 291.099L136.168 288.126C141.906 290.764 148.356 291.56 153.927 289.005C158.241 290.932 162.555 292.901 165.278 294.115C173.026 297.634 170.723 304.084 170.723 304.084L138.178 304.293L114.681 302.911L116.817 284.817Z" fill="#F48461" stroke="#1C2628" stroke-width="2.13" stroke-linecap="round" stroke-linejoin="round"/>
<path d="M90.178 182.073L98.2618 179.099" stroke="#1C2628" stroke-width="2.13" stroke-linecap="round" stroke-linejoin="round"/>
<path fill-rule="evenodd" clip-rule="evenodd" d="M81.2984 283.016C86.6178 274.764 114.932 262.743 114.932 262.743L91.2251 248.335L63.1623 271.037L65.5916 286.995L79.288 300.063C79.2461 300.105 78.9529 286.618 81.2984 283.016Z" fill="#FAF6EB" stroke="#1C2628" stroke-width="2.13" stroke-linecap="round" stroke-linejoin="round"/>
<path fill-rule="evenodd" clip-rule="evenodd" d="M90.8482 207.707L119.204 227.435L71.4136 263.497L71.0785 263.749C71.0785 263.749 76.0209 266.094 79.7487 270.869C82.9738 274.974 88.6702 288.921 88.6702 288.921L119.707 268.188L159.204 241.843L161.927 240.042C166.576 235.895 169.215 227.812 168.168 221.194C167.832 219.141 167.204 217.257 166.157 215.665C156.817 201.382 126.199 182.199 125.236 181.654C125.487 181.738 125.78 180.44 126.073 178.513C126.785 174.073 127.497 166.45 127.497 166.45L81.9686 157.236C81.9686 157.236 62.199 187.937 74.3037 199.497C79.4555 204.398 87.4136 204.565 90.8482 207.707Z" fill="#47584E" stroke="#1C2628" stroke-width="2.13" stroke-linecap="round" stroke-linejoin="round"/>
<path fill-rule="evenodd" clip-rule="evenodd" d="M71.4555 263.497C74.1361 264.335 76.1466 264.126 77.6545 263.581C82.1361 261.948 81.6335 257.34 87.2461 254.576C94.9529 250.806 101.78 256.586 105.801 252.565C108.942 249.424 105.927 244.691 109.194 241.843C112.419 239.037 143.665 228.901 118.367 215.414C105.005 208.293 101.738 200.168 89.2984 197.906C84.9424 197.11 81.6754 197.403 79.3298 197.906C77.4869 198.283 75.8115 198.827 74.3037 199.497C80.1675 203.435 87.4136 204.607 90.8063 207.707L119.162 227.435L71.4555 263.497Z" fill="#1C2628" stroke="#1C2628" stroke-width="2.13" stroke-linecap="round" stroke-linejoin="round"/>
<path d="M70.5759 187.728C77.8639 186.513 83.8534 181.78 84.5236 179.476C84.9843 177.927 89.6754 169.047 89.5916 168.251L82.2618 167.372" stroke="#1C2628" stroke-width="2.13" stroke-linecap="round" stroke-linejoin="round"/>
<path fill-rule="evenodd" clip-rule="evenodd" d="M74.4712 285.696L81.6754 285.654C81.6754 285.654 81.7592 291.853 83.0576 298.597C78.4922 296.503 76.2304 290.806 74.4712 285.696Z" fill="#1C2628" stroke="#1C2628" stroke-width="2.13" stroke-linecap="round" stroke-linejoin="round"/>
<path fill-rule="evenodd" clip-rule="evenodd" d="M65.7173 267.937C65.7173 267.937 71.4555 269.654 68.733 274.555C67.8115 276.272 68.5236 284.021 70.4084 285.654H74.4712C76.1885 290.764 78.4922 296.503 83.0576 298.597C83.4764 300.859 83.9372 303.204 84.356 305.382C84.9005 308.314 86.8691 306.136 91.0157 308.565C92.8586 309.654 92.2304 314.974 92.2304 314.974L73.9267 313.257L63.3717 297.969L58.3037 289.55L52.0628 279.12L65.7173 267.937Z" fill="#F48461" stroke="#1C2628" stroke-width="2.13" stroke-linecap="round" stroke-linejoin="round"/>
<path fill-rule="evenodd" clip-rule="evenodd" d="M83.8115 157.194L127.539 166.408C127.539 166.408 119.539 171.476 115.309 172.524C111.037 173.613 106.806 172.859 104.126 172.147C101.403 171.393 90.8482 168 86.0733 171.77C77.6126 174.408 78.6178 165.864 78.6178 165.864L83.8115 157.194Z" fill="#1C2628" stroke="#1C2628" stroke-width="2.13" stroke-linecap="round" stroke-linejoin="round"/>
<path d="M118.408 257.424C116.482 262.911 115.016 268.817 111.456 273.424" stroke="#1C2628" stroke-width="2.13" stroke-linecap="round" stroke-linejoin="round"/>
<path d="M76.2723 169.34L84.8168 170.387" stroke="#1C2628" stroke-width="2.13" stroke-linecap="round" stroke-linejoin="round"/>
<path d="M117.78 174.492L125.236 181.613" stroke="#1C2628" stroke-width="2.13" stroke-linecap="round" stroke-linejoin="round"/>
<path d="M127.832 228.314L119.204 227.476" stroke="#1C2628" stroke-width="2.13" stroke-linecap="round" stroke-linejoin="round"/>
<path d="M109.864 200.251L137.466 227.058L80.8796 263.539L93.9476 283.099" stroke="#1C2628" stroke-width="2.13" stroke-linecap="round" stroke-linejoin="round"/>
<path d="M141.99 128.126L138.429 149.026" stroke="#1C2628" stroke-width="2.13" stroke-linecap="round" stroke-linejoin="round"/>
<path d="M206.031 122.471L86.1571 228.23" stroke="#1C2628" stroke-width="2.13" stroke-linecap="round" stroke-linejoin="round"/>
<path d="M229.571 101.696L215.497 114.136" stroke="#1C2628" stroke-width="2.13" stroke-linecap="round" stroke-linejoin="round"/>
<path fill-rule="evenodd" clip-rule="evenodd" d="M115.979 202.22C114.22 210.806 100.147 221.194 100.147 221.194C100.147 221.194 97.0471 219.476 98.3874 217.382C99.7277 215.246 104.126 210.304 104.126 210.304C104.126 210.304 101.529 210.89 101.319 210.01C101.11 209.131 101.822 208.084 101.822 208.084C101.822 208.084 100.775 207.414 99.6859 206.743C98.6387 206.073 100.188 204.817 100.188 204.817C100.188 204.817 97.0052 202.806 95.9581 202.094C94.911 201.424 93.6545 199.874 93.6545 199.874C93.6545 199.874 94.8272 196.901 95.8743 197.571C96.9215 198.241 99.9372 199.414 99.9372 199.414L89.0471 188.063L93.4031 181.738L102.743 177.215C110.073 187.393 116.817 198.157 115.979 202.22Z" fill="#FAF6EB" stroke="#1C2628" stroke-width="2.13" stroke-linecap="round" stroke-linejoin="round"/>
<path fill-rule="evenodd" clip-rule="evenodd" d="M70.199 168.461L86.3246 190.827C86.3246 190.827 90.9319 185.466 92.7749 184.042C93.3194 183.623 94.0733 183.12 94.9529 182.534C98.7225 180.105 104.796 176.712 104.796 176.712C101.152 172.272 87.7068 154.723 87.7068 154.723L111.162 122.806L115.183 120.419L116.984 119.33L87.4555 104.963L64.7539 145.34C63.6231 151.958 65.5916 163.644 70.199 168.461Z" fill="#1C2628" stroke="#1C2628" stroke-width="2.13" stroke-linecap="round" stroke-linejoin="round"/>
<path d="M109.236 207.958C108.607 208.754 107.728 209.298 106.764 209.675C105.801 210.052 104.796 210.22 103.791 210.387" stroke="#1C2628" stroke-width="2.13" stroke-linecap="round" stroke-linejoin="round"/>
<path d="M106.932 205.822C105.34 207.204 103.204 207.916 101.068 207.791" stroke="#1C2628" stroke-width="2.13" stroke-linecap="round" stroke-linejoin="round"/>
<path d="M105.382 202.639C104.503 203.309 103.539 203.895 102.534 204.314C102.073 204.524 101.571 204.691 101.068 204.691C100.565 204.733 100.021 204.607 99.644 204.23" stroke="#1C2628" stroke-width="2.13" stroke-linecap="round" stroke-linejoin="round"/>
<path d="M126.241 299.225L115.099 299.267" stroke="#1C2628" stroke-width="2.13" stroke-linecap="round" stroke-linejoin="round"/>
<path d="M170.471 299.099H131.602" stroke="#1C2628" stroke-width="2.13" stroke-linecap="round" stroke-linejoin="round"/>
<path d="M60.9424 285.696L54.8691 276.901" stroke="#1C2628" stroke-width="2.13" stroke-linecap="round" stroke-linejoin="round"/>
<path d="M92.3141 311.33L77.0681 308.942L63.1623 288.88" stroke="#1C2628" stroke-width="2.13" stroke-linecap="round" stroke-linejoin="round"/>
<path fill-rule="evenodd" clip-rule="evenodd" d="M139.267 97.3403L150.241 103.12C154.094 103.874 163.099 132.063 163.099 132.063L180.147 132.23L183.414 144.209C176.251 145.298 171.099 137.173 166.492 137.969C159.246 139.225 157.152 140.901 154.974 138.22C152.419 135.079 158.911 128.88 153.424 123.686C148.105 118.618 143.456 123.309 141.445 113.089C140.859 110.115 144.461 106.01 142.66 103.539C140.063 100.021 133.278 102.283 131.979 99.5183C131.853 99.267 130.513 98.178 130.471 97.8429C133.026 98.1361 137.969 97.5916 139.267 97.3403Z" fill="#FAF6EB"/>
<path fill-rule="evenodd" clip-rule="evenodd" d="M86.0733 171.77C89.2984 175.749 92.2723 179.351 94.9529 182.534C98.7225 180.105 104.796 176.712 104.796 176.712C101.152 172.272 87.7068 154.723 87.7068 154.723L111.162 122.806L115.183 120.419C112.88 118.534 109.864 116.817 106.178 116.565C97.089 115.979 87.9581 124.607 87.1204 132.44C86.7016 136.335 88.6283 137.131 87.7906 140.649C86.0733 147.853 77.11 147.728 75.5183 153.508C74.555 156.775 76.4817 159.916 86.0733 171.77Z" fill="#FAF6EB"/>
<path fill-rule="evenodd" clip-rule="evenodd" d="M143.12 111.497C145.592 116.356 146.932 117.277 147.728 117.11C148.775 116.859 149.613 114.429 148.649 112.67C147.686 110.911 145.131 110.199 143.12 111.497Z" fill="#1C2628" stroke="#1C2628" stroke-width="2.13" stroke-linecap="round" stroke-linejoin="round"/>
<path fill-rule="evenodd" clip-rule="evenodd" d="M151.749 119.958C152.335 119.749 152.503 117.696 151.832 117.403C151.414 117.194 150.534 117.654 150.367 118.366C150.157 119.288 151.288 120.126 151.749 119.958Z" fill="#1C2628" stroke="#1C2628" stroke-width="2.13" stroke-linecap="round" stroke-linejoin="round"/>
<path fill-rule="evenodd" clip-rule="evenodd" d="M93.1518 135.455C94.4503 135.079 94.8691 133.445 94.8691 132.524C94.911 130.764 93.5707 128.88 92.356 128.921C90.8482 128.963 89.2147 131.979 90.2199 133.906C90.7225 134.869 91.9791 135.791 93.1518 135.455Z" fill="#1C2628" stroke="#1C2628" stroke-width="2.13" stroke-linecap="round" stroke-linejoin="round"/>
<path fill-rule="evenodd" clip-rule="evenodd" d="M125.277 181.613C126.241 182.157 156.817 201.34 166.199 215.623C167.246 217.215 167.916 219.141 168.209 221.152C170.22 219.812 171.812 218.094 172.524 215.916C174.031 211.435 171.644 205.654 168.042 202.387C162.764 197.613 157.026 200.377 152.251 195.1C149.445 192 150.408 189.864 148.398 186.723C144.461 180.524 133.613 177.508 126.073 178.471C125.822 180.398 125.529 181.738 125.277 181.613Z" fill="#1C2628" stroke="#1C2628" stroke-width="2.13" stroke-linecap="round" stroke-linejoin="round"/>
<path fill-rule="evenodd" clip-rule="evenodd" d="M119.791 268.188C121.969 268.942 124.23 269.277 126.325 269.068C129.969 268.649 130.513 266.764 138.136 262.325C147.476 256.88 149.361 258.136 152.921 254.743C156.398 251.435 158.576 246.408 159.288 241.843L119.791 268.188Z" fill="#1C2628" stroke="#1C2628" stroke-width="2.13" stroke-linecap="round" stroke-linejoin="round"/>
<path fill-rule="evenodd" clip-rule="evenodd" d="M216.712 110.743L218.89 112.67C220.649 114.22 223.372 114.052 224.922 112.335L231.539 104.921C233.089 103.162 232.922 100.44 231.204 98.89L229.026 96.9633C227.267 95.4136 224.545 95.5811 222.995 97.2984L216.377 104.712C214.785 106.471 214.953 109.194 216.712 110.743Z" fill="#1C2628" stroke="#1C2628" stroke-width="2.13" stroke-linecap="round" stroke-linejoin="round"/>
<path d="M231.539 105.173L223.12 98.0524" stroke="#FAF6EB" stroke-width="2.13" stroke-linecap="round" stroke-linejoin="round"/>
<path d="M225.969 111.791L217.424 104.168" stroke="#FAF6EB" stroke-width="2.13" stroke-linecap="round" stroke-linejoin="round"/>
<path d="M231.414 100.942L220.942 112.503" stroke="#FAF6EB" stroke-width="2.13" stroke-linecap="round" stroke-linejoin="round"/>
<path d="M227.225 97.089L216.419 108.775" stroke="#FAF6EB" stroke-width="2.13" stroke-linecap="round" stroke-linejoin="round"/>
<path d="M99.8534 170.471L104.796 176.712L99.0576 180.021" stroke="#1C2628" stroke-width="2.13" stroke-linecap="round" stroke-linejoin="round"/>
<path d="M107.016 134.283L92.3979 154.429" stroke="white" stroke-width="2.13" stroke-linecap="round" stroke-linejoin="round"/>
<path d="M113.424 132.23L99.8953 150.827" stroke="white" stroke-width="2.13" stroke-linecap="round" stroke-linejoin="round"/>
<path d="M139.476 131.518C138.639 136.963 139.058 149.529 138.932 149.696" stroke="white" stroke-width="2.13" stroke-linecap="round" stroke-linejoin="round"/>
<path d="M72.9634 142.995C74.178 144.084 75.0157 145.801 74.6387 147.393C74.4712 148.105 74.0942 148.733 73.7592 149.361C71.2461 154.387 71.8744 160.838 75.3927 165.194C76.9424 167.162 79.0367 168.712 80.4607 170.764" stroke="white" stroke-width="2.13" stroke-linecap="round" stroke-linejoin="round"/>
<path d="M71.4136 163.351C72.5026 168.963 77.4869 172.859 80.377 177.759" stroke="white" stroke-width="2.13" stroke-linecap="round" stroke-linejoin="round"/>
<path d="M152.251 105.089C157.319 115.351 163.058 132.021 163.058 132.021L180.105 132.188" stroke="#1C2628" stroke-width="2.13" stroke-linecap="round" stroke-linejoin="round"/>
<path d="M142.031 148.314C144.335 150.45 146.764 152.419 149.487 153.969C153.675 156.356 165.026 159.874 165.026 159.874C168.042 156.859 171.853 158.492 174.702 159.497" stroke="white" stroke-width="2.13" stroke-linecap="round" stroke-linejoin="round"/>
<path d="M164.649 156.901C161.592 157.445 158.827 154.848 155.728 154.471" stroke="white" stroke-width="2.13" stroke-linecap="round" stroke-linejoin="round"/>
<path d="M123.686 97.6754C122.052 97.8429 120.545 96.8796 119.037 96.1675C116.398 94.9529 113.215 94.3246 111.539 91.9372C108.021 92.1885 103.749 92.8168 100.607 94.4503C99.5602 94.9948 98.555 95.6649 97.7592 96.5864C96.6283 97.8848 95.8744 99.644 94.3246 100.398" stroke="white" stroke-width="2.13" stroke-linecap="round" stroke-linejoin="round"/>
<path d="M164.021 222.869C164.607 225.927 165.152 229.361 163.476 232C162.723 233.173 161.592 234.052 160.503 234.89C153.885 240.042 147.141 244.984 140.314 249.801" stroke="#1C2628" stroke-width="2.13" stroke-linecap="round" stroke-linejoin="round"/>
<path d="M149.026 238.115C144.126 241.257 139.476 244.775 135.079 248.628C133.026 250.429 130.974 252.314 128.461 253.445" stroke="#1C2628" stroke-width="2.13" stroke-linecap="round" stroke-linejoin="round"/>
<path d="M135.749 244.105C133.319 247.037 129.927 249.005 126.618 250.848C124.901 251.812 123.183 252.775 121.508 253.738" stroke="#1C2628" stroke-width="2.13" stroke-linecap="round" stroke-linejoin="round"/>
<path d="M150.157 260.565C148.607 263.497 144.88 269.445 142.953 272.126" stroke="#1C2628" stroke-width="2.13" stroke-linecap="round" stroke-linejoin="round"/>
<path d="M144.419 262.995C143.958 265.005 143.204 266.932 142.115 268.691" stroke="#1C2628" stroke-width="2.13" stroke-linecap="round" stroke-linejoin="round"/>
<path fill-rule="evenodd" clip-rule="evenodd" d="M305.508 268.188L306.178 317.361L317.654 374.618C317.654 374.618 320.628 386.178 318.827 389.236C317.194 392 306.513 390.241 306.513 390.241C306.513 390.241 280.586 392.545 273.508 390.157C261.11 385.969 277.361 382.618 277.361 382.618L296.754 375.288L278.534 326.408L268.105 268.859L305.508 268.188Z" fill="#F48461" stroke="#1C2628" stroke-width="2.13" stroke-linecap="round" stroke-linejoin="round"/>
<path fill-rule="evenodd" clip-rule="evenodd" d="M244.44 268.565L239.288 327.539L240.377 368.084C240.377 368.084 244.23 375.665 242.681 378.848C241.298 381.738 230.492 380.859 230.492 380.859C230.492 380.859 207.916 384.628 200.67 382.827C187.979 379.686 200.838 375.749 200.838 375.749L219.56 366.785L211.77 322.89L215.581 262.953L244.44 268.565Z" fill="#F48461" stroke="#1C2628" stroke-width="2.13" stroke-linecap="round" stroke-linejoin="round"/>
<path fill-rule="evenodd" clip-rule="evenodd" d="M291.058 151.372C291.058 151.372 320.922 168.126 330.22 180.901C336.754 189.906 347.728 209.801 347.728 209.801C347.728 209.801 352.586 215.037 350.995 219.476C349.194 224.503 351.581 224.251 351.958 225.424C356.021 238.785 338.262 229.613 338.262 229.613L335.288 214.325L309.948 187.812L282.178 173.152L291.058 151.372Z" fill="#F48461" stroke="#1C2628" stroke-width="2.13" stroke-linecap="round" stroke-linejoin="round"/>
<path fill-rule="evenodd" clip-rule="evenodd" d="M237.906 167.832L231.204 207.791L214.157 202.304C214.157 202.304 214.618 177.843 218.722 163.267C222.827 148.691 235.476 147.435 235.476 147.435L237.906 167.832Z" fill="#F48461" stroke="#1C2628" stroke-width="2.13" stroke-linecap="round" stroke-linejoin="round"/>
<path fill-rule="evenodd" clip-rule="evenodd" d="M275.979 153.047L271.079 147.56L263.372 147.141L258.304 154.555L254.869 147.644L247.037 147.183L241.34 150.366L242.681 196.775L278.325 198.785L275.979 153.047Z" fill="#FAF6EB" stroke="#1C2628" stroke-width="2.13" stroke-linecap="round" stroke-linejoin="round"/>
<path fill-rule="evenodd" clip-rule="evenodd" d="M271.079 126.785C274.555 115.602 269.99 106.974 254.031 108.984C252.189 109.236 249.969 109.445 248.293 110.408C240.754 114.806 242.764 126.241 241.927 127.288C239.916 129.717 242.429 133.11 240.377 137.34C236.147 146.136 239.162 157.403 239.162 157.403L278.953 156.23C278.953 156.23 280.586 152.293 278.618 144.921C277.906 142.325 274.764 142.45 274.178 135.288C273.55 128.168 271.079 126.785 271.079 126.785Z" fill="#1C2628" stroke="#1C2628" stroke-width="2.13" stroke-linecap="round" stroke-linejoin="round"/>
<path fill-rule="evenodd" clip-rule="evenodd" d="M251.476 134.325L251.602 144.168L249.131 147.058C249.131 147.058 247.916 156.817 251.77 159.162C256.042 161.675 265.55 156.733 268.817 155.895C271.749 155.141 267.058 149.026 267.058 149.026L266.722 137.759L266.974 133.361L251.476 134.325Z" fill="#F48461" stroke="#1C2628" stroke-width="2.13" stroke-linecap="round" stroke-linejoin="round"/>
<path fill-rule="evenodd" clip-rule="evenodd" d="M249.466 128.461C248.796 125.99 249.005 121.089 249.634 118.827C250.723 114.764 251.895 116.565 256 115.435C260.607 114.178 262.827 112.335 265.843 116.021C267.016 117.445 270.45 122.806 270.995 124.733C272.879 131.644 269.236 138.639 262.869 140.398C258.764 141.529 255.414 141.152 252.44 138.262C250.764 136.67 250.178 130.932 249.466 128.461Z" fill="#F48461" stroke="#1C2628" stroke-width="2.13" stroke-linecap="round" stroke-linejoin="round"/>
<path fill-rule="evenodd" clip-rule="evenodd" d="M258.764 127.832C258.429 126.869 259.309 125.738 260.733 125.277C262.115 124.817 263.497 125.236 263.832 126.157C264.126 127.12 263.288 128.251 261.864 128.712C260.44 129.215 259.058 128.796 258.764 127.832Z" fill="#FAFCFF" stroke="#1C2628" stroke-width="2.13" stroke-linecap="round" stroke-linejoin="round"/>
<path fill-rule="evenodd" clip-rule="evenodd" d="M267.058 124.021C266.764 123.058 267.644 121.927 269.026 121.466C270.408 121.005 271.791 121.424 272.126 122.346C272.419 123.309 271.581 124.44 270.157 124.901C268.733 125.403 267.351 124.984 267.058 124.021Z" fill="#FAFCFF" stroke="#1C2628" stroke-width="2.13" stroke-linecap="round" stroke-linejoin="round"/>
<path fill-rule="evenodd" clip-rule="evenodd" d="M252.9 145.34L251.895 135.288C251.895 135.288 259.979 133.487 261.948 135.623C263.874 137.717 261.822 144.628 261.822 144.628L256.963 145.34" fill="#F48461"/>
<path fill-rule="evenodd" clip-rule="evenodd" d="M244.607 127.455C246.534 130.89 249.759 123.183 249.759 123.183L262.827 120.084L263.749 113.424L266.806 120.88L271.455 120.796C271.455 120.796 267.77 111.539 266.806 110.66C262.995 107.016 256.503 107.225 252.314 110.702C248.838 113.592 240.628 120.419 244.607 127.455Z" fill="#1C2628" stroke="#1C2628" stroke-width="2.13" stroke-linecap="round" stroke-linejoin="round"/>
<path fill-rule="evenodd" clip-rule="evenodd" d="M250.764 129.215C249.843 128.084 248 129.215 247.665 130.304C246.953 132.524 248.628 136.251 252.105 134.031" fill="#F48461"/>
<path d="M250.764 129.215C249.843 128.084 248 129.215 247.665 130.304C246.953 132.524 248.628 136.251 252.105 134.031" stroke="#1C2628" stroke-width="2.13" stroke-linecap="round" stroke-linejoin="round"/>
<path fill-rule="evenodd" clip-rule="evenodd" d="M260.356 128.335C259.686 128.754 258.848 128.67 258.513 128.126C258.178 127.581 258.429 126.785 259.099 126.366C259.77 125.948 260.607 126.031 260.942 126.576C261.278 127.12 261.026 127.916 260.356 128.335Z" fill="#1C2628" stroke="#1C2628" stroke-width="2.13" stroke-linecap="round" stroke-linejoin="round"/>
<path fill-rule="evenodd" clip-rule="evenodd" d="M266.974 124.356C266.513 123.686 266.639 122.597 268.398 122.304C269.026 122.178 268.984 122.513 269.403 123.141C269.864 123.812 269.236 124.524 268.733 124.901C268.188 125.277 267.435 125.026 266.974 124.356Z" fill="#1C2628" stroke="#1C2628" stroke-width="2.13" stroke-linecap="round" stroke-linejoin="round"/>
<path d="M249.843 131.351C249.927 131.435 249.969 131.518 250.052 131.602" stroke="#1C2628" stroke-width="2.13" stroke-linecap="round" stroke-linejoin="round"/>
<path fill-rule="evenodd" clip-rule="evenodd" d="M273.089 147.309L275.937 155.183L281.592 170.848L278.157 180.147L277.194 195.351L236.565 210.806L231.958 166.241L245.277 156.817L246.115 144.335L250.806 144.838L252.021 147.937C253.487 151.749 257.131 154.262 261.236 154.262H262.408C266.052 154.262 268.859 151.079 268.398 147.476L268.188 145.801L273.089 147.309Z" fill="#FAF6EB" stroke="#1C2628" stroke-width="2.13" stroke-linecap="round" stroke-linejoin="round"/>
<path fill-rule="evenodd" clip-rule="evenodd" d="M260.859 133.738C262.408 135.162 264.545 133.571 266.471 133.445C266.471 133.445 266.346 136.88 262.869 136.545C260.565 136.293 260.859 133.738 260.859 133.738Z" fill="#1C2628" stroke="#1C2628" stroke-width="2.13" stroke-linecap="round" stroke-linejoin="round"/>
<path fill-rule="evenodd" clip-rule="evenodd" d="M266.136 125.403C268.524 125.864 271.079 125.068 271.372 126.45C271.707 128.251 267.853 129.55 267.351 129.466" fill="#F48461"/>
<path d="M266.136 125.403C268.524 125.864 271.079 125.068 271.372 126.45C271.707 128.251 267.853 129.55 267.351 129.466" stroke="#1C2628" stroke-width="2.13" stroke-linecap="round" stroke-linejoin="round"/>
<path d="M258.974 113.466C257.801 115.56 257.969 118.157 257.55 120.544" stroke="#FAF6EB" stroke-width="2.13" stroke-linecap="round" stroke-linejoin="round"/>
<path d="M251.77 115.225C241.675 114.429 244.524 133.738 243.518 139.183" stroke="#FAF6EB" stroke-width="2.13" stroke-linecap="round" stroke-linejoin="round"/>
<path fill-rule="evenodd" clip-rule="evenodd" d="M209.55 328.67L215.707 325.822L221.445 331.476L226.681 324.147L234.136 330.806L237.864 325.613L245.445 330.681L243.309 293.152L262.576 247.581C262.576 247.581 263.162 251.56 264.126 257.633C266.806 275.016 272.293 309.403 274.513 315.853C274.597 316.063 275.393 321.257 275.979 324.901C276.314 326.911 276.524 328.419 276.524 328.419L282.094 324.356L288.126 331.141L294.241 325.654L300.607 331.895L305.173 326.325L311.665 331.77L313.382 325.319C313.382 325.319 304.921 248.838 298.555 231.414C292.188 213.99 285.948 212.565 285.948 212.565L231.079 201.633C231.079 201.633 230.325 204.272 229.068 208.586C223.791 226.764 210.094 275.099 210.094 283.518C210.136 289.969 209.885 305.675 209.717 316.691C209.634 323.644 209.55 328.67 209.55 328.67Z" fill="#1C2628" stroke="#1C2628" stroke-width="2.13" stroke-linecap="round" stroke-linejoin="round"/>
<path fill-rule="evenodd" clip-rule="evenodd" d="M249.759 144.377L237.236 137.508L235.351 145.634L228.398 145.801L231.455 155.141L222.366 158.367L226.471 166.66L220.565 172.817L229.822 176.545L229.487 208.838L250.471 209.089L249.759 144.377Z" fill="#1C2628" stroke="#1C2628" stroke-width="2.13" stroke-linecap="round" stroke-linejoin="round"/>
<path fill-rule="evenodd" clip-rule="evenodd" d="M270.995 146.639C270.995 146.639 266.304 203.267 266.513 206.702C266.723 210.136 286.66 203.393 286.66 203.393L288.67 174.911L296.209 172.147L291.183 165.864L300.105 161.633L293.78 158.241L300.272 148.482L285.026 147.225L270.995 146.639Z" fill="#1C2628" stroke="#1C2628" stroke-width="2.13" stroke-linecap="round" stroke-linejoin="round"/>
<path fill-rule="evenodd" clip-rule="evenodd" d="M236.942 224.293C242.262 232.293 251.518 229.277 258.848 233.298C264.67 236.482 268.607 245.78 272.88 250.764C286.199 266.178 306.429 268.649 321.675 240.503C322.262 239.414 322.806 238.283 323.309 237.152C329.717 222.534 329.173 202.178 305.047 196.105C286.45 191.414 279.539 193.257 275.183 193.508C273.424 193.592 272.084 193.424 270.576 192.461C263.874 188.23 258.806 172.942 249.633 174.241C248.628 174.367 243.309 175.832 244.356 182.953C245.403 190.031 253.403 197.864 253.78 202.639C253.948 204.817 255.832 211.183 251.937 209.801C244.817 207.204 230.995 215.372 236.942 224.293Z" fill="#5AB7CC" stroke="#1C2628" stroke-width="2.13" stroke-linecap="round" stroke-linejoin="round"/>
<path fill-rule="evenodd" clip-rule="evenodd" d="M253.78 192.796C255.581 183.455 269.026 198.995 273.34 201.466C282.346 206.534 303.204 200.586 301.403 215.623C300.817 220.482 296.084 224.209 293.026 227.728C290.806 230.283 291.309 243.728 284.272 245.487C276.817 247.33 272.712 236.23 266.346 231.623C261.571 228.188 248.293 227.728 246.073 221.78C243.309 214.408 251.518 215.33 254.115 210.387C256.796 205.277 252.733 198.115 253.78 192.796Z" fill="#FAF6EB" stroke="#1C2628" stroke-width="2.13" stroke-linecap="round" stroke-linejoin="round"/>
<path fill-rule="evenodd" clip-rule="evenodd" d="M186.974 165.78C180.649 163.686 177.508 159.079 170.848 158.911C164.188 158.785 161.298 160.712 170.513 168.838C179.728 177.005 175.455 175.623 182.241 180.356C189.026 185.089 192.586 183.204 192.586 183.204L195.099 184.461L199.162 174.618C197.906 173.236 192.503 167.581 186.974 165.78Z" fill="#1C2628" stroke="#1C2628" stroke-width="2.13" stroke-linecap="round" stroke-linejoin="round"/>
<path fill-rule="evenodd" clip-rule="evenodd" d="M294.869 221.822L199.414 174.911C199.414 174.911 199.33 174.785 199.162 174.618L195.099 184.461L290.011 231.414L294.869 221.822Z" fill="#FAF6EB" stroke="#1C2628" stroke-width="2.13" stroke-linecap="round" stroke-linejoin="round"/>
<path fill-rule="evenodd" clip-rule="evenodd" d="M303.078 219.016L294.702 214.199L284.105 235.77L292.356 239.707L303.078 219.016Z" fill="#1C2628" stroke="#1C2628" stroke-width="2.13" stroke-linecap="round" stroke-linejoin="round"/>
<path d="M292.314 225.005L196.984 177.55" stroke="#1C2628" stroke-width="2.13" stroke-linecap="round" stroke-linejoin="round"/>
<path d="M290.471 227.728L194.974 180.775" stroke="#1C2628" stroke-width="2.13" stroke-linecap="round" stroke-linejoin="round"/>
<path fill-rule="evenodd" clip-rule="evenodd" d="M221.277 220.105C233.047 225.592 231.079 201.759 231.079 201.759L215.037 194.639L200.963 188.398L201.759 178.764C201.759 178.764 201.927 176.796 201.005 176C200.084 175.204 198.073 175.623 198.073 175.623C198.073 175.623 197.822 173.613 197.152 173.152C195.099 171.644 193.55 172.775 193.55 172.775L191.33 168.796C191.33 168.796 193.173 166.073 193.634 163.979C194.094 162.094 193.215 160.754 192.921 160.88C191.916 161.257 187.644 168.168 187.644 168.168L188.147 184.042C188.188 184 209.508 214.618 221.277 220.105Z" fill="#F48461" stroke="#1C2628" stroke-width="2.13" stroke-linecap="round" stroke-linejoin="round"/>
<path d="M198.115 175.455C197.613 178.178 196.021 183.246 197.11 185.801" stroke="#1C2628" stroke-width="2.13" stroke-linecap="round" stroke-linejoin="round"/>
<path d="M194.639 172.649C192.209 173.278 190.953 182.995 192.586 184.544" stroke="#1C2628" stroke-width="2.13" stroke-linecap="round" stroke-linejoin="round"/>
<path d="M350.325 230.492C349.613 229.068 348.649 228.063 347.895 226.639" stroke="#1C2628" stroke-width="2.13" stroke-linecap="round" stroke-linejoin="round"/>
<path d="M345.969 230.911C344.461 228.23 345.047 222.869 344 219.979" stroke="#1C2628" stroke-width="2.13" stroke-linecap="round" stroke-linejoin="round"/>
<path d="M342.241 230.744C341.11 230.199 340.23 220.942 339.853 219.267" stroke="#1C2628" stroke-width="2.13" stroke-linecap="round" stroke-linejoin="round"/>
<path fill-rule="evenodd" clip-rule="evenodd" d="M271.749 115.099C271.749 115.099 273.508 104.921 261.99 106.01C250.471 107.099 241.885 111.288 241.675 114.471C241.466 117.654 242.304 120.168 242.304 120.168L271.749 115.099Z" fill="#F48461" stroke="#1C2628" stroke-width="2.13" stroke-linecap="round" stroke-linejoin="round"/>
<path fill-rule="evenodd" clip-rule="evenodd" d="M272.251 116.356C272.251 116.356 278.995 110.576 276.44 108.482C272.209 104.921 249.215 114.471 249.215 114.471L241.801 120L272.251 116.356Z" fill="#FAF6EB" stroke="#1C2628" stroke-width="2.13" stroke-linecap="round" stroke-linejoin="round"/>
<path d="M298.806 265.885C298.806 265.885 305.675 306.429 308.021 326.534" stroke="#FAF6EB" stroke-width="2.13" stroke-linecap="round" stroke-linejoin="round"/>
<path d="M253.152 244.063C244.901 257.466 233.717 293.948 233.717 293.948C233.717 293.948 234.136 311.791 235.099 320.377" stroke="#FAF6EB" stroke-width="2.13" stroke-linecap="round" stroke-linejoin="round"/>
<path fill-rule="evenodd" clip-rule="evenodd" d="M319.581 374.869L321.298 387.183L292.356 387.56L284.482 378.639L293.236 373.445L293.654 366.45L301.613 374.869H319.581Z" fill="#1C2628" stroke="#1C2628" stroke-width="2.13" stroke-linecap="round" stroke-linejoin="round"/>
<path fill-rule="evenodd" clip-rule="evenodd" d="M242.681 367.079L242.597 377.508L215.832 380.063L207.33 371.77L215.665 365.906L217.843 358.785L224.126 366.743L242.681 367.079Z" fill="#1C2628" stroke="#1C2628" stroke-width="2.13" stroke-linecap="round" stroke-linejoin="round"/>
<path fill-rule="evenodd" clip-rule="evenodd" d="M321.298 384.838L321.634 391.749L267.393 392.293C267.393 392.293 264.168 386.22 269.319 383.414C274.471 380.607 286.618 377.466 286.618 377.466L291.141 384.838H321.298Z" fill="#FAF6EB" stroke="#1C2628" stroke-width="2.13" stroke-linecap="round" stroke-linejoin="round"/>
<path fill-rule="evenodd" clip-rule="evenodd" d="M242.89 375.162L243.309 382.869L190.157 383.246C190.157 383.246 187.686 380.859 192.586 377.675C197.529 374.492 209.382 370.429 209.382 370.429L214.45 377.424L242.89 375.162Z" fill="#FAF6EB" stroke="#1C2628" stroke-width="2.13" stroke-linecap="round" stroke-linejoin="round"/>
<path fill-rule="evenodd" clip-rule="evenodd" d="M308.607 383.539C308.942 382.618 308.44 381.571 307.518 381.277C306.597 380.984 305.592 381.487 305.257 382.408C304.921 383.372 305.424 384.377 306.346 384.67C307.267 385.005 308.272 384.503 308.607 383.539Z" fill="#FAF6EB" stroke="#1C2628" stroke-width="2.13" stroke-linecap="round" stroke-linejoin="round"/>
<path fill-rule="evenodd" clip-rule="evenodd" d="M231.791 374.827C232.042 373.864 231.497 372.901 230.534 372.649C229.571 372.398 228.607 372.984 228.356 373.948C228.105 374.911 228.649 375.916 229.613 376.126C230.576 376.377 231.539 375.791 231.791 374.827Z" fill="#FAF6EB" stroke="#1C2628" stroke-width="2.13" stroke-linecap="round" stroke-linejoin="round"/>
<path fill-rule="evenodd" clip-rule="evenodd" d="M300.691 383.497C301.026 382.534 300.524 381.529 299.602 381.236C298.681 380.942 297.675 381.445 297.34 382.366C297.005 383.33 297.508 384.335 298.429 384.628C299.351 384.963 300.356 384.419 300.691 383.497Z" fill="#FAF6EB" stroke="#1C2628" stroke-width="2.13" stroke-linecap="round" stroke-linejoin="round"/>
<path fill-rule="evenodd" clip-rule="evenodd" d="M223.874 375.372C224.126 374.408 223.581 373.445 222.618 373.194C221.696 372.942 220.691 373.529 220.482 374.492C220.23 375.455 220.775 376.419 221.738 376.67C222.66 376.921 223.623 376.335 223.874 375.372Z" fill="#FAF6EB" stroke="#1C2628" stroke-width="2.13" stroke-linecap="round" stroke-linejoin="round"/>
<path d="M295.749 375.749C295.832 375.874 295.539 375.497 295.455 375.372C294.869 374.45 294.283 373.613 293.613 372.733" stroke="#FAF6EB" stroke-width="2.13" stroke-linecap="round" stroke-linejoin="round"/>
<path d="M218.346 368.042C218.429 368.168 218.094 367.832 218.01 367.707C217.382 366.827 216.712 366.031 216 365.194" stroke="#FAF6EB" stroke-width="2.13" stroke-linecap="round" stroke-linejoin="round"/>
<path d="M293.654 378.262C293.654 378.262 291.56 375.623 290.681 374.199" stroke="#FAF6EB" stroke-width="2.13" stroke-linecap="round" stroke-linejoin="round"/>
<path d="M216.461 370.681C216.461 370.681 214.199 368.209 213.194 366.869" stroke="#FAF6EB" stroke-width="2.13" stroke-linecap="round" stroke-linejoin="round"/>
<path d="M290.681 379.476C289.969 378.346 289.173 377.257 288.377 376.209" stroke="#FAF6EB" stroke-width="2.13" stroke-linecap="round" stroke-linejoin="round"/>
<path d="M213.613 372.105C212.817 371.016 211.937 370.01 211.058 369.005" stroke="#FAF6EB" stroke-width="2.13" stroke-linecap="round" stroke-linejoin="round"/>
<path d="M292.105 384.921L274.932 388.23" stroke="#1C2628" stroke-width="2.13" stroke-linecap="round" stroke-linejoin="round"/>
<path d="M215.414 377.466L205.654 379.895" stroke="#1C2628" stroke-width="2.13" stroke-linecap="round" stroke-linejoin="round"/>
<path fill-rule="evenodd" clip-rule="evenodd" d="M210.094 283.644C210.094 277.278 217.885 248.209 224 226.513C226.848 227.435 229.361 229.068 231.037 231.874C231.791 233.131 231.288 234.764 229.99 235.435C227.518 236.733 225.005 236.901 223.581 239.665C220.942 244.901 227.351 249.634 227.351 256.503C226.639 257.382 225.927 258.262 225.173 259.058C225.927 258.262 226.681 257.382 227.351 256.503C227.351 257.298 227.267 258.136 227.058 259.016C225.633 265.089 220.649 264.209 217.633 272.67C216.209 276.607 217.173 277.152 215.162 284.565C213.319 291.309 212.398 291.476 212.188 294.743C211.77 301.487 215.707 303.623 215.414 307.895C215.204 310.911 212.901 314.136 209.759 316.817C209.885 305.801 210.136 290.094 210.094 283.644Z" fill="#FAF6EB"/>
<path fill-rule="evenodd" clip-rule="evenodd" d="M264.126 257.717C266.806 275.099 272.293 309.487 274.513 315.937C274.597 316.147 275.393 321.34 275.979 324.984C281.843 321.843 288.293 318.743 288.377 316.817C288.503 312.921 280.838 310.283 277.696 303.288C275.434 298.262 277.613 299.016 275.225 289.633C273.633 283.393 270.073 284.314 269.277 280.335C267.058 269.068 272.628 261.948 269.236 258.764C268.482 258.01 267.016 257.34 264.126 257.717Z" fill="#FAF6EB"/>
<path fill-rule="evenodd" clip-rule="evenodd" d="M275.225 193.508C275.853 195.644 276.901 197.529 278.367 198.785C282.932 202.806 289.759 197.487 300.063 201.675C301.152 202.136 307.644 204.859 311.958 211.351C317.445 219.56 313.675 225.131 317.906 231.707C319.246 233.801 321.131 235.602 323.351 237.11C329.759 222.492 329.215 202.136 305.089 196.063C286.492 191.414 279.581 193.257 275.225 193.508Z" fill="#1C2628" stroke="#1C2628" stroke-width="2.13" stroke-linecap="round" stroke-linejoin="round"/>
<path d="M224 226.513L210.094 280.712L209.885 302.785" stroke="#1C2628" stroke-width="2.13" stroke-linecap="round" stroke-linejoin="round"/>
<path d="M266.764 275.309L275.979 325.026" stroke="#1C2628" stroke-width="2.13" stroke-linecap="round" stroke-linejoin="round"/>
<path d="M278.366 147.141L275.225 146.806L273.508 177.55" stroke="#FAF6EB" stroke-width="2.13" stroke-linecap="round" stroke-linejoin="round"/>
<path d="M247.037 147.183V172.649" stroke="#FAF6EB" stroke-width="2.13" stroke-linecap="round" stroke-linejoin="round"/>
<path d="M239.455 286.618C239.581 286.492 236.147 294.45 236.188 295.832C236.272 300.23 236.733 312.293 237.487 316.607" stroke="white" stroke-width="2.13" stroke-linecap="round" stroke-linejoin="round"/>
<path d="M238.869 297.005C239.916 304.167 240.67 311.372 241.131 318.576" stroke="white" stroke-width="2.13" stroke-linecap="round" stroke-linejoin="round"/>
<path d="M295.456 264.042C296 271.204 297.131 278.325 298.806 285.277" stroke="white" stroke-width="2.13" stroke-linecap="round" stroke-linejoin="round"/>
<path d="M292.649 273.173C293.194 278.366 294.157 283.56 295.497 288.628C297.675 296.88 300.942 305.257 299.811 313.717" stroke="white" stroke-width="2.13" stroke-linecap="round" stroke-linejoin="round"/>
<path d="M300.23 291.225C300.607 294.283 301.026 297.298 301.403 300.356" stroke="white" stroke-width="2.13" stroke-linecap="round" stroke-linejoin="round"/>
<path d="M272.963 281.55C273.173 282.429 273.885 283.1 274.513 283.728C277.026 286.408 278.45 290.136 278.325 293.822" stroke="white" stroke-width="2.13" stroke-linecap="round" stroke-linejoin="round"/>
<path d="M274.01 268.314C273.927 272 274.764 275.686 276.398 278.953" stroke="white" stroke-width="2.13" stroke-linecap="round" stroke-linejoin="round"/>
<path d="M232.293 220.272C232.754 222.241 233.257 224.251 234.471 225.885C235.476 227.225 236.901 228.147 238.283 229.068C239.497 229.906 240.754 230.702 242.094 231.288C246.325 233.131 251.56 232.712 255.162 235.644" stroke="white" stroke-width="2.13" stroke-linecap="round" stroke-linejoin="round"/>
<path d="M258.304 242.387C256.754 240.796 255.204 239.162 253.319 237.99C251.435 236.817 249.173 236.063 246.995 236.398" stroke="white" stroke-width="2.13" stroke-linecap="round" stroke-linejoin="round"/>
<path d="M237.152 174.199C235.016 175.539 232.419 176.084 229.906 175.791" stroke="white" stroke-width="2.13" stroke-linecap="round" stroke-linejoin="round"/>
<path d="M231.665 167.832C230.618 167.749 229.571 167.539 228.565 167.162" stroke="white" stroke-width="2.13" stroke-linecap="round" stroke-linejoin="round"/>
<path d="M287.623 174.911C284.901 175.414 282.178 175.623 279.414 175.623" stroke="white" stroke-width="2.13" stroke-linecap="round" stroke-linejoin="round"/>
<path d="M286.283 171.393C283.644 172.314 280.838 172.775 278.073 172.733" stroke="white" stroke-width="2.13" stroke-linecap="round" stroke-linejoin="round"/>
<path d="M278.827 157.78C277.822 162.429 277.319 167.162 277.319 171.895C277.319 174.199 277.361 176.754 275.812 178.429" stroke="white" stroke-width="2.13" stroke-linecap="round" stroke-linejoin="round"/>
<path d="M276.984 179.979C277.864 179.686 278.45 178.639 278.283 177.717" stroke="white" stroke-width="2.13" stroke-linecap="round" stroke-linejoin="round"/>
<path d="M287.079 192.754H276.272" stroke="white" stroke-width="2.13" stroke-linecap="round" stroke-linejoin="round"/>
<path d="M235.309 145.089C237.487 146.932 239.539 148.942 241.508 150.995" stroke="white" stroke-width="2.13" stroke-linecap="round" stroke-linejoin="round"/>
<path d="M271.33 136.921C271.665 139.686 272.586 142.325 274.052 144.712" stroke="white" stroke-width="2.13" stroke-linecap="round" stroke-linejoin="round"/>
<path d="M268.607 136.544C268.733 138.178 268.859 139.853 268.984 141.487" stroke="white" stroke-width="2.13" stroke-linecap="round" stroke-linejoin="round"/>
<path d="M247.12 128.586C246.953 133.571 247.455 137.257 247.288 142.241C247.288 142.785 247.246 143.33 246.995 143.791" stroke="white" stroke-width="2.13" stroke-linecap="round" stroke-linejoin="round"/>
<path d="M142.785 303.456V387.518" stroke="#FAF6EB" stroke-width="2.13" stroke-linecap="round" stroke-linejoin="round"/>
<path d="M147.56 314.178H155.644" stroke="#FAF6EB" stroke-width="2.13" stroke-linecap="round" stroke-linejoin="round"/>
<path d="M147.56 318.576H155.644" stroke="#FAF6EB" stroke-width="2.13" stroke-linecap="round" stroke-linejoin="round"/>
<path d="M147.56 322.974H155.644" stroke="#FAF6EB" stroke-width="2.13" stroke-linecap="round" stroke-linejoin="round"/>
<path d="M157.236 311.12H145.843V326.157H157.236V311.12Z" stroke="#FAF6EB" stroke-width="2.13" stroke-linecap="round" stroke-linejoin="round"/>
<path d="M94.7853 311.12H136.209V326.115H78.5759V318.995" stroke="#FAF6EB" stroke-width="2.13" stroke-linecap="round" stroke-linejoin="round"/>
<path d="M85.5288 321.131C86.7085 321.131 87.6649 320.174 87.6649 318.995C87.6649 317.815 86.7085 316.859 85.5288 316.859C84.349 316.859 83.3927 317.815 83.3927 318.995C83.3927 320.174 84.349 321.131 85.5288 321.131Z" stroke="#FAF6EB" stroke-width="2.13" stroke-linecap="round" stroke-linejoin="round"/>
<path d="M94.7853 321.131C95.9651 321.131 96.9214 320.174 96.9214 318.995C96.9214 317.815 95.9651 316.859 94.7853 316.859C93.6056 316.859 92.6492 317.815 92.6492 318.995C92.6492 320.174 93.6056 321.131 94.7853 321.131Z" stroke="#FAF6EB" stroke-width="2.13" stroke-linecap="round" stroke-linejoin="round"/>
<path d="M104.042 321.131C105.222 321.131 106.178 320.174 106.178 318.995C106.178 317.815 105.222 316.859 104.042 316.859C102.862 316.859 101.906 317.815 101.906 318.995C101.906 320.174 102.862 321.131 104.042 321.131Z" stroke="#FAF6EB" stroke-width="2.13" stroke-linecap="round" stroke-linejoin="round"/>
<path d="M130.848 316.817H110.827V321.089H130.848V316.817Z" stroke="#FAF6EB" stroke-width="2.13" stroke-linecap="round" stroke-linejoin="round"/>
<path d="M105.717 371.644C115.78 371.644 123.937 363.487 123.937 353.424C123.937 343.361 115.78 335.204 105.717 335.204C95.6547 335.204 87.4974 343.361 87.4974 353.424C87.4974 363.487 95.6547 371.644 105.717 371.644Z" stroke="#FAF6EB" stroke-width="2.13" stroke-linecap="round" stroke-linejoin="round"/>
<path d="M105.717 368.544C114.068 368.544 120.838 361.775 120.838 353.424C120.838 345.073 114.068 338.304 105.717 338.304C97.3665 338.304 90.5969 345.073 90.5969 353.424C90.5969 361.775 97.3665 368.544 105.717 368.544Z" stroke="#FAF6EB" stroke-width="2.13" stroke-linecap="round" stroke-linejoin="round"/>
<path d="M105.717 360.921C109.858 360.921 113.215 357.565 113.215 353.424C113.215 349.283 109.858 345.927 105.717 345.927C101.577 345.927 98.2199 349.283 98.2199 353.424C98.2199 357.565 101.577 360.921 105.717 360.921Z" stroke="#FAF6EB" stroke-width="2.13" stroke-linecap="round" stroke-linejoin="round"/>
<path d="M67.7696 379.77H160.712" stroke="#FAF6EB" stroke-width="2.13" stroke-linecap="round" stroke-linejoin="round"/>
<path d="M160.712 340.607H142.534V358.785H160.712V340.607Z" fill="#FAF6EB"/>
<path d="M160.293 340.607V355.56" stroke="#1C2628" stroke-width="2.13" stroke-linecap="round" stroke-linejoin="round"/>
<path d="M182.45 389.319H242.513" stroke="#1C2628" stroke-width="2.13" stroke-linecap="round" stroke-linejoin="round"/>
<path d="M228.356 386.346H252.44" stroke="#1C2628" stroke-width="2.13" stroke-linecap="round" stroke-linejoin="round"/>
<path d="M252.942 398.911H313.173" stroke="#1C2628" stroke-width="2.13" stroke-linecap="round" stroke-linejoin="round"/>
<path d="M301.319 396.859H355.937" stroke="#1C2628" stroke-width="2.13" stroke-linecap="round" stroke-linejoin="round"/>
<path d="M243.351 381.99H188.901V384.084H243.351V381.99Z" fill="#1C2628" stroke="#1C2628" stroke-width="2.13" stroke-linecap="round" stroke-linejoin="round"/>
<path d="M321.675 390.367H266.806V392.461H321.675V390.367Z" fill="#1C2628" stroke="#1C2628" stroke-width="2.13" stroke-linecap="round" stroke-linejoin="round"/>
</svg>
